<svg width="118" height="24" viewBox="0 0 118 24" fill="none" xmlns="http://www.w3.org/2000/svg">
<path d="M32.3551 15.2549C34.6235 15.0554 38.9659 13.8789 38.7864 9.87052C38.4125 7.85138 35.81 6.40061 33.1777 9.87052C32.0809 11.765 30.9342 16.1672 35.122 18.6201C36.7672 19.5923 40.7307 19.9961 43.4229 13.834" stroke="#F5521A" stroke-width="3.58956" stroke-linejoin="round"/>
<path fill-rule="evenodd" clip-rule="evenodd" d="M18.7461 16.8538C19.8377 17.3153 20.9188 17.5856 21.8939 17.7072C22.9794 17.8426 24.0728 17.8103 24.9526 17.5414C24.9932 17.529 25.0335 17.5153 25.0732 17.5003C26.4284 16.9911 27.3322 15.8834 27.932 14.8381C28.5493 13.7623 28.9951 12.4915 29.3227 11.2467C29.8465 9.25616 30.1268 7.10195 30.2478 5.40402C30.2948 4.7447 29.7749 4.19238 29.1142 4.17149L27.4544 4.11901C26.7941 4.09814 26.2431 4.61631 26.1928 5.27503C26.08 6.7501 25.8339 8.57763 25.4024 10.2174C25.1225 11.2809 24.7875 12.1756 24.4157 12.8235C24.0811 13.4065 23.8173 13.6172 23.6956 13.6853C23.4947 13.7273 23.0514 13.7686 22.3971 13.6871C21.7946 13.6119 21.1001 13.4425 20.3876 13.148C21.6474 10.7742 21.9841 8.70333 21.4516 6.98134C20.8953 5.1823 19.5186 4.19079 18.3269 3.85026C18.302 3.84315 18.2769 3.83651 18.2518 3.83036C16.0863 3.30039 14.2165 3.68773 12.9999 5.05932C11.9335 6.26153 11.7681 7.79753 11.8413 8.75349C11.8561 8.94674 11.8944 9.12266 11.9437 9.27766C12.6868 11.6092 13.9123 13.3721 15.3301 14.6688C15.0056 15.2255 14.6269 15.7665 14.1965 16.2432C13.1081 17.4487 11.8618 18.0873 10.327 17.8556C9.99899 17.7263 9.62035 17.5304 8.99479 16.8325C8.18056 15.9241 6.9963 14.2066 5.24797 10.8441L5.03368 10.3818C4.75579 9.78241 4.04463 9.52168 3.44513 9.79944L1.93828 10.4976C1.33859 10.7754 1.07776 11.4869 1.35575 12.0865L1.58902 12.5897C1.60175 12.6172 1.61509 12.6443 1.62903 12.6712C3.44255 16.1636 4.81824 18.2457 5.97508 19.5363C7.22455 20.9302 8.21371 21.3909 9.05245 21.7061C9.18308 21.7552 9.31599 21.7916 9.44869 21.816C12.8543 22.4427 15.4682 20.8812 17.2057 18.9567C17.7993 18.2993 18.3112 17.5812 18.7461 16.8538ZM17.1135 10.6275C17.7544 9.20692 17.6654 8.45949 17.5786 8.17878C17.4902 7.89289 17.3123 7.78341 17.231 7.75221C16.6446 7.61532 16.321 7.6469 16.1798 7.67944C16.0665 7.70555 16.0408 7.73672 16.0339 7.74502C16.0335 7.74552 16.0332 7.74594 16.0329 7.74626C16.0102 7.77179 15.9603 7.84514 15.9218 7.99646C15.8985 8.08773 15.8858 8.18364 15.8814 8.27327C16.2008 9.19807 16.6246 9.97568 17.1135 10.6275Z" fill="#F5521A"/>
<path d="M80.9637 14.0583C83.2322 13.8589 87.5745 12.6823 87.3951 8.67399C87.0211 6.65484 84.4187 5.20408 81.7864 8.67399C80.6895 10.5685 79.5429 14.9707 83.7307 17.4235C85.3759 18.3957 89.3394 18.7995 92.0316 12.6375" stroke="#F5521A" stroke-width="3.58956" stroke-linejoin="round"/>
<path d="M92.1812 13.7593C94.4496 13.5598 98.7919 12.3833 98.6125 8.37492C98.2385 6.35577 95.6361 4.905 93.0038 8.37492C91.907 10.2694 90.7603 14.6716 94.9481 17.1245C96.5933 18.0967 100.557 18.5005 103.249 12.3384" stroke="#F5521A" stroke-width="3.58956" stroke-linejoin="round"/>
<path d="M109.062 20.5653C110.557 17.1261 110.258 12.2832 110.41 9.19797M103.2 8.91801L110.41 9.19797M110.41 9.19797L111.978 9.27316L117.437 9.72185M110.41 9.19797L110.856 2.54272" stroke="#F5521A" stroke-width="3.58956" stroke-linejoin="round"/>
<path fill-rule="evenodd" clip-rule="evenodd" d="M62.4534 6.56792C61.5185 5.81569 60.5442 5.25697 59.6338 4.875C58.6203 4.44974 57.5559 4.18968 56.6364 4.22279C56.594 4.22431 56.5516 4.22722 56.5093 4.2315C55.0685 4.37729 53.9088 5.24074 53.0589 6.12332C52.1842 7.03156 51.4247 8.18025 50.7861 9.33455C49.7538 11.2004 48.9187 13.2996 48.3623 14.97C48.1561 15.5892 48.5098 16.2472 49.1328 16.4416L50.7284 16.9396C51.3671 17.1389 52.044 16.7755 52.2593 16.1421C52.7502 14.6982 53.4626 12.9346 54.3064 11.4095C54.852 10.4232 55.4072 9.6202 55.934 9.07315C56.408 8.58094 56.7174 8.44125 56.8525 8.40588C57.0574 8.41773 57.4964 8.49496 58.1073 8.75125C58.6698 8.98727 59.2968 9.34201 59.9088 9.82622C58.0775 11.8577 57.2163 13.8338 57.285 15.6941C57.3567 17.6376 58.4299 18.9948 59.4929 19.6531C59.5151 19.6669 59.5375 19.6802 59.5602 19.6931C61.5148 20.8007 63.4211 20.9141 64.9513 19.8709C66.2924 18.9566 66.8498 17.4684 67.0265 16.4951C67.0622 16.2984 67.0708 16.1126 67.0632 15.9448C66.9489 13.42 66.2214 11.3337 65.1876 9.66096C65.6451 9.19233 66.1509 8.7538 66.69 8.3933C68.0533 7.48157 69.4224 7.17761 70.845 7.81904C71.1284 8.03573 71.4434 8.33247 71.867 9.19596C72.4184 10.3199 73.1178 12.35 73.9362 16.172L74.0278 16.7151C74.1384 17.3717 74.7637 17.8116 75.4191 17.694L77.0574 17.3999C77.7029 17.284 78.1349 16.6701 78.0259 16.0234L77.9223 15.4085C77.9171 15.3778 77.9113 15.3471 77.9048 15.3166C77.057 11.3475 76.267 8.9025 75.4836 7.30568C74.6375 5.581 73.8013 4.85694 73.0727 4.31829C72.9592 4.23439 72.8403 4.16252 72.7184 4.10268C69.5911 2.56704 66.6621 3.42621 64.4857 4.88167C63.7422 5.3789 63.0619 5.95843 62.4534 6.56792ZM62.419 13.2161C61.4322 14.462 61.3247 15.2315 61.3359 15.5348C61.3473 15.8436 61.4909 16.0004 61.5613 16.0533C62.0922 16.3466 62.4131 16.4016 62.5578 16.4069C62.674 16.4111 62.707 16.3869 62.7157 16.3804C62.7163 16.3801 62.7167 16.3797 62.7171 16.3795C62.7455 16.3601 62.8128 16.3002 62.8891 16.1596C62.9352 16.0747 62.9723 15.9824 62.9998 15.8942C62.9306 14.8862 62.7226 13.9971 62.419 13.2161Z" fill="#F5521A"/>
</svg>
