<svg xmlns="http://www.w3.org/2000/svg" width="80" height="81" fill="none" viewBox="0 0 80 81">
  <path stroke="#F5521A" stroke-linejoin="round" stroke-width="4.414" d="M39.858 55.52c2.79-.245 8.129-1.692 7.908-6.62-.46-2.484-3.66-4.267-6.897 0-1.348 2.329-2.758 7.742 2.391 10.758 2.023 1.195 6.897 1.692 10.207-5.885M46.11 35.658c2.79-.245 8.13-1.692 7.909-6.62-.46-2.484-3.66-4.268-6.897 0-1.348 2.329-2.758 7.742 2.391 10.758 2.023 1.195 6.897 1.692 10.207-5.885"/>
  <path stroke="#F5521A" stroke-linejoin="round" stroke-width="4.414" d="M53.651 55.52c2.79-.245 8.129-1.692 7.908-6.62-.46-2.484-3.66-4.268-6.896 0-1.35 2.329-2.76 7.742 2.39 10.758 2.023 1.195 7.664 1.38 11.434-5.609 3.513-9.149-.136-12.553.187-24.644m-8.865-.344 8.865.344m0 0 1.928.093 6.713.551m-8.64-.644.548-8.183"/>
  <path fill="#F5521A" fill-rule="evenodd" d="M20.96 48.204a14.69 14.69 0 0 0-3.468-2.015c-1.246-.507-2.555-.816-3.685-.777a2.47 2.47 0 0 0-.157.01c-1.771.174-3.197 1.202-4.242 2.253-1.076 1.081-2.01 2.449-2.795 3.823-1.256 2.197-2.274 4.667-2.958 6.645-.266.768.176 1.59.954 1.824l1.955.591c.777.235 1.596-.205 1.866-.971.603-1.717 1.477-3.809 2.512-5.62.67-1.173 1.353-2.13 2.001-2.78.583-.587.963-.753 1.13-.795.251.014.791.106 1.542.411a9.686 9.686 0 0 1 2.215 1.28c-2.251 2.419-3.31 4.771-3.226 6.986.088 2.313 1.408 3.93 2.715 4.713l.083.048c2.403 1.318 4.747 1.453 6.629.211 1.649-1.088 2.334-2.86 2.552-4.019.043-.234.054-.455.045-.655-.14-3.005-1.035-5.49-2.307-7.48a11.657 11.657 0 0 1 1.848-1.51c1.676-1.085 3.36-1.447 5.109-.684.348.259.736.612 1.257 1.64.678 1.338 1.537 3.755 2.544 8.305l.107.617c.14.8.901 1.336 1.702 1.197l2.012-.35a1.47 1.47 0 0 0 1.197-1.701l-.117-.672a2.551 2.551 0 0 0-.021-.11c-1.043-4.725-2.014-7.636-2.978-9.537-1.04-2.053-2.068-2.915-2.964-3.556a2.85 2.85 0 0 0-.436-.257c-3.845-1.828-7.447-.805-10.123.928a16.483 16.483 0 0 0-2.499 2.007Zm-.043 7.915c-1.213 1.483-1.346 2.4-1.332 2.76.014.368.19.554.277.617.653.35 1.048.415 1.226.421.143.005.183-.023.194-.031l.002-.001a.756.756 0 0 0 .211-.262c.057-.101.102-.211.136-.316-.085-1.2-.34-2.259-.714-3.188Zm8.46-18.496c1.342.568 2.672.9 3.87 1.05 1.335.166 2.68.127 3.762-.204.05-.015.099-.032.148-.05 1.666-.627 2.778-1.989 3.515-3.274.76-1.323 1.307-2.885 1.71-4.416.644-2.448.989-5.096 1.138-7.184.057-.811-.582-1.49-1.394-1.516l-2.041-.064c-.812-.026-1.49.611-1.552 1.421-.138 1.814-.44 4.061-.971 6.077-.345 1.308-.756 2.408-1.214 3.205-.411.717-.735.976-.885 1.06-.247.051-.792.102-1.597.002a9.686 9.686 0 0 1-2.47-.663c1.548-2.92 1.962-5.465 1.308-7.583-.684-2.212-2.377-3.431-3.843-3.85a2.28 2.28 0 0 0-.092-.024c-2.663-.652-4.962-.176-6.458 1.51-1.31 1.48-1.514 3.368-1.424 4.543.018.238.065.454.126.645.913 2.867 2.42 5.034 4.164 6.629a11.66 11.66 0 0 1-1.394 1.936c-1.339 1.482-2.871 2.267-4.758 1.982-.404-.159-.87-.4-1.638-1.258-1.002-1.117-2.458-3.229-4.608-7.363l-.263-.569a1.471 1.471 0 0 0-1.953-.716l-1.853.859a1.471 1.471 0 0 0-.717 1.954l.287.618c.016.034.032.067.05.1 2.23 4.295 3.921 6.855 5.344 8.442 1.536 1.714 2.752 2.28 3.784 2.668.16.06.324.105.487.135 4.187.77 7.401-1.15 9.538-3.516.73-.808 1.36-1.691 1.894-2.586Zm-2.008-7.655c.789-1.747.68-2.666.572-3.011-.108-.352-.327-.487-.427-.525-.721-.168-1.119-.13-1.293-.09-.139.033-.17.071-.179.081l-.001.002a.76.76 0 0 0-.137.307c-.029.113-.044.23-.05.34a10.497 10.497 0 0 0 1.515 2.896Z" clip-rule="evenodd"/>
</svg>
