<svg xmlns="http://www.w3.org/2000/svg" width="120" height="24" fill="none" viewBox="0 0 120 24">
  <path stroke="#F5521A" stroke-linejoin="round" stroke-width="3.59" d="M33.355 15.255c2.269-.2 6.61-1.376 6.431-5.384-.373-2.02-2.976-3.47-5.608 0-1.097 1.894-2.244 6.296 1.944 8.75 1.645.971 5.609 1.375 8.3-4.787"/>
  <path fill="#F5521A" fill-rule="evenodd" d="M19.746 16.854c1.092.461 2.173.732 3.148.853 1.085.136 2.179.103 3.059-.166.04-.012.08-.026.12-.04 1.355-.51 2.26-1.618 2.859-2.663.617-1.076 1.063-2.347 1.39-3.591.524-1.991.805-4.145.926-5.843a1.16 1.16 0 0 0-1.134-1.233l-1.66-.052c-.66-.021-1.21.497-1.261 1.156-.113 1.475-.36 3.303-.79 4.942-.28 1.064-.615 1.958-.987 2.606-.335.583-.599.794-.72.862-.201.042-.645.083-1.299.002a7.878 7.878 0 0 1-2.01-.54c1.26-2.373 1.597-4.444 1.065-6.166-.557-1.799-1.933-2.79-3.125-3.13a2.076 2.076 0 0 0-.075-.02C17.086 3.3 15.217 3.687 14 5.058c-1.066 1.202-1.232 2.738-1.159 3.694.015.194.053.37.103.525.743 2.331 1.968 4.094 3.386 5.39a9.48 9.48 0 0 1-1.133 1.575c-1.089 1.206-2.335 1.844-3.87 1.613-.328-.13-.707-.326-1.332-1.024-.814-.908-1.999-2.626-3.747-5.988l-.214-.462c-.278-.6-.99-.86-1.589-.583l-1.507.699c-.6.277-.86.989-.582 1.588l.233.504.04.081c1.814 3.492 3.19 5.575 4.346 6.865 1.25 1.394 2.239 1.855 3.077 2.17.131.05.264.085.397.11 3.405.627 6.02-.935 7.757-2.86a13.402 13.402 0 0 0 1.54-2.102Zm-1.633-6.227c.641-1.42.552-2.168.466-2.448-.089-.286-.267-.396-.348-.427-.586-.137-.91-.105-1.051-.073-.113.026-.14.058-.146.066l-.001.001a.615.615 0 0 0-.111.25 1.416 1.416 0 0 0-.04.277 8.534 8.534 0 0 0 1.231 2.354Z" clip-rule="evenodd"/>
  <path stroke="#F5521A" stroke-linejoin="round" stroke-width="3.59" d="M81.964 14.058c2.268-.199 6.61-1.376 6.431-5.384-.374-2.02-2.976-3.47-5.609 0-1.097 1.895-2.243 6.297 1.945 8.75 1.645.972 5.608 1.376 8.3-4.787"/>
  <path stroke="#F5521A" stroke-linejoin="round" stroke-width="3.59" d="M93.181 13.76c2.269-.2 6.61-1.377 6.431-5.385-.373-2.02-2.976-3.47-5.608 0-1.097 1.894-2.244 6.297 1.944 8.75 1.645.972 5.609 1.375 8.301-4.787m5.813 8.227c1.495-3.439 1.196-8.282 1.348-11.367m-7.21-.28 7.21.28m0 0 1.568.075 5.459.449m-7.027-.524.446-6.655"/>
  <path fill="#F5521A" fill-rule="evenodd" d="M63.453 6.568a11.858 11.858 0 0 0-2.82-1.693c-1.013-.425-2.077-.685-2.997-.652a1.96 1.96 0 0 0-.127.008c-1.44.146-2.6 1.01-3.45 1.892-.875.909-1.634 2.057-2.273 3.211-1.032 1.866-1.867 3.966-2.424 5.636-.206.62.148 1.277.77 1.472l1.596.497c.64.2 1.316-.164 1.531-.797.491-1.444 1.204-3.207 2.047-4.733.546-.986 1.101-1.789 1.628-2.336.474-.492.783-.632.919-.667.204.012.643.089 1.254.345a7.82 7.82 0 0 1 1.802 1.075c-1.831 2.032-2.693 4.008-2.624 5.868.072 1.944 1.145 3.3 2.208 3.96l.067.039c1.955 1.108 3.861 1.221 5.391.178 1.341-.915 1.899-2.403 2.076-3.376a2.46 2.46 0 0 0 .036-.55c-.114-2.525-.842-4.611-1.875-6.284a9.548 9.548 0 0 1 1.502-1.268c1.363-.912 2.732-1.215 4.155-.574.283.217.598.513 1.022 1.377.551 1.124 1.25 3.154 2.07 6.976l.09.543a1.197 1.197 0 0 0 1.392.979l1.638-.294a1.196 1.196 0 0 0 .969-1.377l-.104-.614a2.193 2.193 0 0 0-.017-.093c-.848-3.969-1.638-6.414-2.421-8.01-.846-1.725-1.683-2.45-2.411-2.988a2.306 2.306 0 0 0-.355-.215c-3.127-1.536-6.056-.677-8.232.779a13.5 13.5 0 0 0-2.033 1.686Zm-.034 6.648c-.987 1.246-1.094 2.016-1.083 2.319.011.309.155.465.225.518.531.293.852.348.997.354.116.004.149-.02.158-.027h.001a.632.632 0 0 0 .172-.22 1.48 1.48 0 0 0 .11-.266 9.063 9.063 0 0 0-.58-2.678Z" clip-rule="evenodd"/>
</svg>
