<svg width="22" height="22" viewBox="0 0 22 22" fill="none" xmlns="http://www.w3.org/2000/svg">
<path d="M8.46126 8.25H6.60018C5.57341 8.25 5.05965 8.25 4.66748 8.44982C4.32251 8.62559 4.04225 8.90585 3.86649 9.25081C3.66666 9.64299 3.66666 10.1567 3.66666 11.1835V16.3168C3.66666 17.3436 3.66666 17.8567 3.86649 18.2489C4.04225 18.5939 4.32251 18.8746 4.66748 19.0504C5.05927 19.25 5.57243 19.25 6.59719 19.25H15.4028C16.4276 19.25 16.94 19.25 17.3318 19.0504C17.6767 18.8746 17.9579 18.5939 18.1337 18.2489C18.3333 17.8571 18.3333 17.3447 18.3333 16.3199V11.1805C18.3333 10.1557 18.3333 9.6426 18.1337 9.25081C17.9579 8.90585 17.6767 8.62559 17.3318 8.44982C16.9396 8.25 16.4269 8.25 15.4002 8.25H13.5382M8.46126 8.25H13.5382M8.46126 8.25C8.34443 8.25 8.25 8.15529 8.25 8.03846V5.5C8.25 3.98122 9.48121 2.75 11 2.75C12.5188 2.75 13.75 3.98122 13.75 5.5V8.03846C13.75 8.15529 13.655 8.25 13.5382 8.25" stroke="#A1A1AA" stroke-width="2" stroke-linecap="round" stroke-linejoin="round"/>
</svg>
