<svg width="24" height="24" viewBox="0 0 24 24" fill="none" xmlns="http://www.w3.org/2000/svg">
<path d="M19 10.9998C19 11.7098 18.894 12.3948 18.698 13.0398M12 17.9998C10.1435 17.9998 8.36301 17.2623 7.05025 15.9495C5.7375 14.6368 5 12.8563 5 10.9998M12 17.9998V20.9998M12 17.9998C13.6129 18.0023 15.1768 17.4453 16.425 16.4238M9.714 4.05678C10.1117 3.58885 10.6433 3.25423 11.2372 3.0981C11.8311 2.94197 12.4586 2.97185 13.035 3.18371C13.6114 3.39557 14.1089 3.7792 14.4603 4.2828C14.8117 4.7864 15.0001 5.3857 15 5.99978V9.34278M9 8.99978V10.9998C8.99987 11.5326 9.14163 12.0558 9.41071 12.5156C9.67979 12.9755 10.0665 13.3554 10.531 13.6162C10.9956 13.8771 11.5212 14.0096 12.0539 14C12.5866 13.9904 13.1071 13.8392 13.562 13.5618" stroke="black" stroke-width="2" stroke-linecap="round" stroke-linejoin="round"/>
<path d="M4 4L20 20" stroke="black" stroke-width="2" stroke-linecap="round"/>
</svg>
