<svg width="24" height="24" viewBox="0 0 24 24" fill="none" xmlns="http://www.w3.org/2000/svg">
<path d="M15.5 6C15.5 4.34315 14.1569 3 12.5 3C10.8431 3 9.5 4.34315 9.5 6V11C9.5 12.6569 10.8431 14 12.5 14C14.1569 14 15.5 12.6569 15.5 11V6Z" fill="#3F3F46" stroke="#3F3F46" stroke-width="2" stroke-linecap="round" stroke-linejoin="round"/>
<path d="M19.5 11C19.5 11.9193 19.3189 12.8295 18.9672 13.6788C18.6154 14.5281 18.0998 15.2997 17.4497 15.9497C16.7997 16.5998 16.0281 17.1154 15.1788 17.4672C14.3295 17.8189 13.4193 18 12.5 18M12.5 18C11.5807 18 10.6705 17.8189 9.82122 17.4672C8.97194 17.1154 8.20026 16.5998 7.55025 15.9497C6.90024 15.2997 6.38463 14.5281 6.03284 13.6788C5.68106 12.8295 5.5 11.9193 5.5 11M12.5 18V21" stroke="#3F3F46" stroke-width="2" stroke-linecap="round" stroke-linejoin="round"/>
</svg>
