<svg width="20" height="20" viewBox="0 0 20 20" fill="none" xmlns="http://www.w3.org/2000/svg">
<path d="M10 7.49997V10.8333M3.64909 12.6665C2.89123 13.9791 2.51241 14.6357 2.56901 15.1743C2.61839 15.644 2.86493 16.0708 3.24707 16.3484C3.68503 16.6666 4.44242 16.6666 5.95711 16.6666H14.0429C15.5576 16.6666 16.3149 16.6666 16.7528 16.3484C17.135 16.0708 17.3816 15.644 17.431 15.1743C17.4876 14.6357 17.1089 13.9791 16.351 12.6665L12.3096 5.66647C11.5517 4.35382 11.1726 3.6976 10.6779 3.47734C10.2464 3.28522 9.75334 3.28522 9.32183 3.47734C8.82732 3.69751 8.44845 4.35373 7.69122 5.66529L3.64909 12.6665ZM10.0423 13.3333V13.4166L9.9585 13.4168V13.3333H10.0423Z" stroke="#A1A1AA" stroke-width="2" stroke-linecap="round" stroke-linejoin="round"/>
</svg>
