<svg xmlns="http://www.w3.org/2000/svg" width="814" height="760" fill="none" viewBox="0 0 814 760">
  <path fill="#F3EFEB" fill-rule="evenodd" d="M709.586 373.585c-8.543 6.11-18.226 8.946-27.93 7.377-24.947-4.035-40.586-35.659-34.93-70.634 5.656-34.975 30.466-60.057 55.413-56.023 10.508 1.7 19.364 8.293 25.674 17.97 8.688-6.701 18.609-9.889 28.532-8.285 24.649 3.987 39.97 36.042 34.22 71.597-5.751 35.556-30.394 61.148-55.043 57.162-10.74-1.737-19.709-8.802-25.936-19.164Z" clip-rule="evenodd"/>
  <path stroke="#004030" stroke-width="5.053" d="M726.699 322.592c-2.324 14.368-8.409 26.619-16.24 34.832-7.841 8.222-17.221 12.219-26.319 10.747-9.098-1.471-16.741-8.221-21.59-18.495-4.844-10.262-6.757-23.807-4.434-38.176 2.324-14.368 8.41-26.619 16.241-34.832 7.84-8.222 17.221-12.219 26.319-10.747 9.098 1.471 16.74 8.221 21.59 18.495 4.843 10.262 6.757 23.807 4.433 38.176Z"/>
  <path fill="#F3EFEB" stroke="#004030" stroke-width="5.053" d="M777.755 330.588c-1.165 14.508-6.249 27.208-13.397 36.021-7.157 8.825-16.187 13.56-25.373 12.822-9.187-.737-17.346-6.853-23.003-16.706-5.65-9.841-8.643-23.189-7.478-37.697 1.165-14.508 6.25-27.208 13.397-36.021 7.157-8.825 16.187-13.56 25.374-12.822 9.186.737 17.345 6.853 23.002 16.706 5.65 9.841 8.643 23.189 7.478 37.697Z"/>
  <rect width="37.895" height="40.421" x="711.863" y="303.558" fill="#004030" rx="18.947" transform="rotate(9.186 711.863 303.558)"/>
  <rect width="12.632" height="11.368" x="729.046" y="313.266" fill="#F3EFEB" rx="5.684" transform="rotate(4.59 729.046 313.266)"/>
  <rect width="37.895" height="40.421" x="659.491" y="295.088" fill="#004030" rx="18.947" transform="rotate(9.186 659.491 295.088)"/>
  <rect width="12.632" height="11.368" x="674.693" y="303.945" fill="#F3EFEB" rx="5.684" transform="rotate(9.186 674.693 303.945)"/>
  <path fill="#fff" d="M242.6 237v72h-36.96v-39.936c0-.096-.192-.096-.192 0L196.04 309h-24.48l-9.408-39.648c0-.096-.192-.096-.192 0V309h-35.04v-72h51.168l8.256 35.616c0 .192.192.192.192 0l7.68-35.616H242.6Zm3.851 0h39.84v37.824c0 3.84 3.648 5.76 7.2 5.76 3.648 0 7.2-1.92 7.2-5.664V237h39.84v45.408c0 19.68-23.52 29.472-47.04 29.472s-47.04-9.792-47.04-29.472V237Zm147.987 28.608c2.784 0 5.472 0 7.968.096 1.92-5.472-3.072-7.872-9.216-7.872-5.088 0-8.448 2.016-8.448 4.608 0 2.4 2.112 3.168 7.296 3.168h2.4Zm-50.88-6.432c0-16.32 23.232-25.056 51.072-25.056 31.392 0 51.264 11.712 47.424 29.856l-38.496 1.728c31.104 1.056 41.184 7.776 41.184 21.408 0 16.224-22.464 24.768-50.592 24.768-31.296 0-52.224-8.832-50.304-29.856l39.456-2.688c-30.816-1.248-39.744-8.928-39.744-20.16Zm41.28 20.256c-1.44 5.664 3.648 8.448 9.984 8.448 4.992 0 8.928-1.536 8.928-4.704 0-3.072-3.264-3.648-9.216-3.648h-2.4c-2.592 0-4.992-.096-7.296-.096ZM447.826 309v-72h39.84v72h-39.84Zm95.528 2.88c-35.232 0-52.8-16.128-52.8-38.784 0-26.688 22.848-38.976 52.8-38.976 31.776 0 49.44 11.904 52.8 32.352l-40.8 6.624c0-5.856-5.472-8.256-12-8.256-6.912 0-12 2.688-12 8.064 0 5.568 5.088 8.256 12 8.256 6.72 0 12-2.784 12-8.064l40.8 4.128c-2.784 18.912-18.624 34.656-52.8 34.656ZM126.92 432v-72h39.84v72h-39.84Zm93.8-43.392c2.784 0 5.472 0 7.968.096 1.92-5.472-3.072-7.872-9.216-7.872-5.088 0-8.448 2.016-8.448 4.608 0 2.4 2.112 3.168 7.296 3.168h2.4Zm-50.88-6.432c0-16.32 23.232-25.056 51.072-25.056 31.392 0 51.264 11.712 47.424 29.856l-38.496 1.728c31.104 1.056 41.184 7.776 41.184 21.408 0 16.224-22.464 24.768-50.592 24.768-31.296 0-52.225-8.832-50.304-29.856l39.456-2.688c-30.816-1.248-39.744-8.928-39.744-20.16Zm41.28 20.256c-1.44 5.664 3.648 8.448 9.984 8.448 4.992 0 8.928-1.536 8.928-4.704 0-3.072-3.264-3.648-9.216-3.648h-2.4c-2.592 0-4.992-.096-7.296-.096Z"/>
  <path fill="#FDF99D" d="M242.6 483v72h-36.96v-39.936c0-.096-.192-.096-.192 0L196.04 555h-24.48l-9.408-39.648c0-.096-.192-.096-.192 0V555h-35.04v-72h51.168l8.256 35.616c0 .192.192.192.192 0l7.68-35.616H242.6Zm106.667 0-31.776 57.6V555h-39.84v-14.496L244.339 483h46.08c2.4 9.216 4.896 18.432 7.296 27.648 0 .096.192.096.192 0L305.683 483h43.584Zm60.774 43.584c0 .096.096.192.192.192h37.44V555h-77.472v-72h39.84v43.584ZM450.826 555v-72h39.84v72h-39.84Zm83.624-43.776v5.76h39.36v22.848h-39.36V555h-39.936v-72h80.736v28.224h-40.8Zm83.227-4.032h-.096v5.28c0 .192 0 .192.096.192h40.32V526.2h-40.32c-.096 0-.096 0-.096.192v5.376h42.432V555h-81.312v-72h80.736v24.192h-41.76Zm-236.012-99.671L359.01 394.5l22.655-13.021a2.65 2.65 0 0 0 .977-3.629l-5.337-9.202a2.675 2.675 0 0 0-3.645-.973l-22.655 13.021v-26.04a2.662 2.662 0 0 0-2.668-2.656h-10.674a2.662 2.662 0 0 0-2.668 2.656v26.041l-22.655-13.02a2.675 2.675 0 0 0-3.645.973l-5.337 9.2a2.65 2.65 0 0 0 .977 3.629L326.99 394.5l-22.655 13.021a2.65 2.65 0 0 0-.977 3.629l5.337 9.202a2.677 2.677 0 0 0 3.645.973l22.655-13.021v26.04a2.662 2.662 0 0 0 2.668 2.656h10.674a2.662 2.662 0 0 0 2.668-2.656v-26.041l22.655 13.02a2.673 2.673 0 0 0 3.645-.973l5.337-9.202c.737-1.27.3-2.894-.977-3.627Z"/>
  <circle cx="612.535" cy="154.535" r="55.142" fill="#FDF99D" transform="rotate(-15 612.535 154.535)"/>
  <circle cx="612.096" cy="154.281" r="43.906" fill="#FDF99D" stroke="#004030" stroke-width="6" transform="rotate(-15 612.096 154.281)"/>
  <ellipse cx="596.105" cy="148.557" fill="#004030" rx="4.297" ry="8.594" transform="rotate(-15 596.105 148.557)"/>
  <ellipse cx="623.083" cy="141.329" fill="#004030" rx="4.297" ry="8.594" transform="rotate(-15 623.083 141.329)"/>
  <path stroke="#004030" stroke-width="5" d="M590 166.847c4.341 11.405 17.071 17.813 29.57 14.464 12.5-3.35 20.321-15.264 18.377-27.311"/>
  <path fill="#fff" d="m702.155 444-10.331 12.809-10.781-4.118 6.513 13.724L677 474.191h14.824L696.989 487l2.471-16.468H719l-16.845-9.835V444Z"/>
</svg>
